<svg xmlns="http://www.w3.org/2000/svg" viewBox="0 0 923.41 507.13"><defs><style>.a{fill:#fff;}</style></defs><path d="M890.79,32.9C862.35,4.46,822.21,0,774.53,0H148c-46.84,0-87,4.46-115.42,32.9S0,101.2,0,147.76V358.53c0,47.68,4.18,87.26,32.62,115.7s68.58,32.9,116,32.9H774.53c47.68,0,87.82-4.46,116.26-32.9s32.62-68,32.62-115.7V148.6C923.41,100.92,919.23,61.06,890.79,32.9Z"/><path class="a" d="M270.38,285.46l114-59.57-93.46-48.78,11.3-39.54,142.24,80.62-4.62,21.05-173,87.3Z"/><path class="a" d="M476.81,327.56H656.54l-8.73,40.57H467.57Z"/></svg>